# xmcd CD database file
# Copyright (C) 1997 Ti Kan
# 
# Track frame offsets:
#     150
#     13540
#     26975
#     37192
#     53970
#     64382
#     76332
#     93575
#     103532
#     117870
#     128825
#     140512
#     151550
#     168127
#     186655
#     196437
# 
# Disc length: 2766 seconds
# 
# Revision: 1
# Processed by: cddbd v1.4b41PL1 Copyright (c) Steve Scherf et al.
# Submitted via: DiscPlay 4.0.4
# 
DISCID=dd0acc10
DTITLE=Freddy Quinn - It's Country Time
DYEAR=1900
DGENRE=
TTITLE0=Hallo liebe Freunde - It's Country Time
TTITLE1=Green Green Grass Of Home
TTITLE2=Geh'n wir nochmal den Weg nach Westen
TTITLE3=Heute Nacht da brauch ich dich
TTITLE4=Die schonste Frau von Texas
TTITLE5=Ich mocht in Tennessee Ieben
TTITLE6=Gib mir ein Zuhaus'
TTITLE7=Oh wie schade, Clementine
TTITLE8=Was wissen wir schon von dieser Welt
TTITLE9=Die Wahrheit uber Tom Dooley
TTITLE10=Die Freiheit der Berge
TTITLE11=Kann Liebe alles verzeih'n
TTITLE12=Ein ausgedienter Zug
TTITLE13=Er war ein Kind dieser Stadt
TTITLE14=Oh, Susanna, du Rose der Prarie
TTITLE15=Nur ein Mann in besten Jahren
EXTD=
EXTT0=
EXTT1=
EXTT2=
EXTT3=
EXTT4=
EXTT5=
EXTT6=
EXTT7=
EXTT8=
EXTT9=
EXTT10=
EXTT11=
EXTT12=
EXTT13=
EXTT14=
EXTT15=
PLAYORDER=
